<svg width="20" height="20" viewBox="0 0 20 20" fill="none" xmlns="http://www.w3.org/2000/svg">
<g id="016-safety" clip-path="url(#clip0_316_11581)">
<path id="Vector" d="M17.5061 0H2.49395C1.42031 0 0.546875 0.873438 0.546875 1.94707V1.95395H19.4531V1.94707C19.4531 0.873438 18.5797 0 17.5061 0Z" fill="#646464"/>
<path id="Vector_2" d="M0.546875 11.4361C0.546875 12.5097 1.42031 13.3832 2.49395 13.3832H3.60605C3.5982 13.2321 3.59375 13.08 3.59375 12.9266V8.59293C3.59375 7.62367 4.3823 6.83512 5.35156 6.83512H14.6484C15.6177 6.83512 16.4062 7.62367 16.4062 8.59293V12.9266C16.4062 13.08 16.4018 13.2321 16.3939 13.3832H17.5061C18.5796 13.3832 19.4531 12.5097 19.4531 11.4361V5.46875H0.546875V11.4361Z" fill="#646464"/>
<path id="Vector_3" d="M0.585938 3.125H19.4141V4.29688H0.585938V3.125Z" fill="#646464"/>
<path id="Vector_4" d="M14.6484 8.00781H5.35156C5.02797 8.00781 4.76562 8.27016 4.76562 8.59375V12.9274C4.76562 15.2433 5.81582 17.2424 7.72281 18.5564L9.66754 19.8965C9.76762 19.9655 9.88383 20 10 20C10.1162 20 10.2324 19.9655 10.3325 19.8965L12.2772 18.5564C14.1842 17.2424 15.2344 15.2433 15.2344 12.9274V8.59375C15.2344 8.27016 14.972 8.00781 14.6484 8.00781ZM12.6018 12.2498L10.3743 14.4773C10.2644 14.5872 10.1154 14.649 9.95996 14.649C9.80457 14.649 9.65555 14.5872 9.54566 14.4773L8.45289 13.3846C8.22406 13.1557 8.22406 12.7848 8.45289 12.5559C8.68168 12.3271 9.0527 12.3271 9.28152 12.5559L9.96 13.2344L11.7732 11.4211C12.002 11.1923 12.373 11.1923 12.6019 11.4211C12.8306 11.6499 12.8306 12.0209 12.6018 12.2498Z" fill="#646464"/>
</g>
<defs>
<clipPath id="clip0_316_11581">
<rect width="20" height="20" fill="white"/>
</clipPath>
</defs>
</svg>
