<svg width="20" height="21" viewBox="0 0 20 21" fill="none" xmlns="http://www.w3.org/2000/svg">
<g id="042-accounting" clip-path="url(#clip0_316_13041)">
<g id="Group">
<path id="Vector" d="M6.97949 13.4688H9.27117V14.6406H6.97949V13.4688Z" fill="#646464"/>
<path id="Vector_2" d="M6.97949 8.78125H9.27117V9.95312H6.97949V8.78125Z" fill="#646464"/>
<path id="Vector_3" d="M3.51562 8.78125H5.8073V9.95312H3.51562V8.78125Z" fill="#646464"/>
<path id="Vector_4" d="M3.51562 11.125H5.8073V12.2969H3.51562V11.125Z" fill="#646464"/>
<path id="Vector_5" d="M13.0859 0.84375V3.66457H15.9068L13.0859 0.84375Z" fill="#646464"/>
<path id="Vector_6" d="M6.97949 11.125H9.27117V12.2969H6.97949V11.125Z" fill="#646464"/>
<path id="Vector_7" d="M3.51562 13.4688H5.8073V14.6406H3.51562V13.4688Z" fill="#646464"/>
<path id="Vector_8" d="M3.51562 15.8125H5.8073V16.9844H3.51562V15.8125Z" fill="#646464"/>
<path id="Vector_9" d="M6.97949 15.8125H9.27117V16.9844H6.97949V15.8125Z" fill="#646464"/>
<path id="Vector_10" d="M16.25 9.21094V4.83594H12.5C12.1764 4.83594 11.9141 4.57359 11.9141 4.25V0.5H0.585938C0.262344 0.5 0 0.762344 0 1.08594V19.9141C0 20.2377 0.262344 20.5 0.585938 20.5H11.7969V10.815C11.7969 9.9291 12.515 9.21094 13.4009 9.21094H16.25ZM10.4427 17.5703C10.4427 17.8939 10.1804 18.1562 9.85676 18.1562H2.92969C2.60609 18.1562 2.34375 17.8939 2.34375 17.5703V8.19531C2.34375 7.87172 2.60609 7.60938 2.92969 7.60938H9.85676C10.1804 7.60938 10.4427 7.87172 10.4427 8.19531V17.5703ZM2.34375 5.77348C2.34375 5.44988 2.60609 5.18754 2.92969 5.18754H6.99219C7.31578 5.18754 7.57812 5.44988 7.57812 5.77348C7.57812 6.09707 7.31578 6.35941 6.99219 6.35941H2.92969C2.60609 6.35941 2.34375 6.09707 2.34375 5.77348ZM10.1562 4.01566H2.92969C2.60609 4.01566 2.34375 3.75332 2.34375 3.42973C2.34375 3.10613 2.60609 2.84379 2.92969 2.84379H10.1562C10.4798 2.84379 10.7421 3.10613 10.7421 3.42973C10.7421 3.75332 10.4798 4.01566 10.1562 4.01566Z" fill="#646464"/>
<path id="Vector_11" d="M12.9756 19.9983C13.0163 20.2821 13.2598 20.5005 13.5549 20.5005H14.5416V18.9688H12.9756V19.9983Z" fill="#646464"/>
<path id="Vector_12" d="M15.7129 16.2305H17.2789V17.7965H15.7129V16.2305Z" fill="#646464"/>
<path id="Vector_13" d="M12.9756 13.4922H14.5416V15.0582H12.9756V13.4922Z" fill="#646464"/>
<path id="Vector_14" d="M12.9756 16.2305H14.5416V17.7965H12.9756V16.2305Z" fill="#646464"/>
<path id="Vector_15" d="M15.7129 18.9688H17.2789V20.5005H15.7129V18.9688Z" fill="#646464"/>
<path id="Vector_16" d="M15.7129 13.4922H17.2789V15.0582H15.7129V13.4922Z" fill="#646464"/>
<path id="Vector_17" d="M19.4141 10.3828H13.5547C13.2311 10.3828 12.9688 10.6452 12.9688 10.9688V12.3205H20V10.9688C20 10.6452 19.7377 10.3828 19.4141 10.3828Z" fill="#646464"/>
<path id="Vector_18" d="M18.4512 20.5002H19.414C19.7376 20.5002 19.9999 20.2378 19.9999 19.9142V16.2305H18.4512V20.5002Z" fill="#646464"/>
<path id="Vector_19" d="M18.4512 13.4922H19.9999V15.0582H18.4512V13.4922Z" fill="#646464"/>
</g>
</g>
<defs>
<clipPath id="clip0_316_13041">
<rect width="20" height="20" fill="white" transform="translate(0 0.5)"/>
</clipPath>
</defs>
</svg>
