<svg width="20" height="21" viewBox="0 0 20 21" fill="none" xmlns="http://www.w3.org/2000/svg">
<g clip-path="url(#clip0_316_11750)">
<path d="M18.7114 0.5H15.1035L17.6105 3.00706C17.9425 3.3389 18.1254 3.78038 18.1254 4.24999V19.914C18.1254 20.1194 18.0897 20.3166 18.0246 20.5H18.7114C19.0349 20.5 19.2973 20.2377 19.2973 19.9141V1.08594C19.2973 0.762343 19.0349 0.5 18.7114 0.5Z" fill="#646464"/>
<path d="M8.24219 11.0664C6.87406 11.3395 5.83984 12.5494 5.83984 13.9966C5.83984 14.6041 6.02246 15.1694 6.33504 15.6416L8.24219 13.7344V11.0664Z" fill="#646464"/>
<path d="M13.7891 0.84375V3.66457H16.6099L13.7891 0.84375Z" fill="#646464"/>
<path d="M7.15918 16.4739C7.63602 16.7961 8.21035 16.9844 8.82789 16.9844C10.2751 16.9844 11.485 15.9502 11.7581 14.582H9.05105L7.15918 16.4739Z" fill="#646464"/>
<path d="M12.6171 4.24998V0.5H1.28906C0.965468 0.5 0.703125 0.762343 0.703125 1.08594V19.914C0.703125 20.2376 0.965468 20.4999 1.28906 20.4999H16.3671C16.6907 20.4999 16.9531 20.2376 16.9531 19.914V4.83592H13.2031C12.8795 4.83592 12.6171 4.57358 12.6171 4.24998ZM3.6328 2.84378H10.8593C11.1829 2.84378 11.4452 3.10612 11.4452 3.42971C11.4452 3.75331 11.1829 4.01565 10.8593 4.01565H3.6328C3.30921 4.01565 3.04687 3.75331 3.04687 3.42971C3.04687 3.10612 3.30921 2.84378 3.6328 2.84378ZM3.6328 5.18752H10.8984C11.2219 5.18752 11.4843 5.44986 11.4843 5.77346C11.4843 6.09705 11.2219 6.35939 10.8984 6.35939H3.6328C3.30921 6.35939 3.04687 6.09705 3.04687 5.77346C3.04687 5.44986 3.30921 5.18752 3.6328 5.18752ZM3.04687 8.1172C3.04687 7.7936 3.30921 7.53126 3.6328 7.53126H6.99216C7.31575 7.53126 7.5781 7.7936 7.5781 8.1172C7.5781 8.44079 7.31575 8.70313 6.99216 8.70313H3.6328C3.30921 8.70313 3.04687 8.44079 3.04687 8.1172ZM13.3007 14.582H12.9468C12.6611 16.5994 10.9232 18.1562 8.82809 18.1562C6.5342 18.1562 4.66795 16.29 4.66795 13.996C4.66795 11.901 6.22474 10.163 8.24216 9.87735V9.5234C8.24216 9.19981 8.5045 8.93747 8.82809 8.93747C11.6174 8.93747 13.8867 11.2068 13.8867 13.996C13.8867 14.3196 13.6243 14.582 13.3007 14.582Z" fill="#646464"/>
<path d="M9.41406 10.1523V13.4091H12.6708C12.4164 11.734 11.0891 10.4067 9.41406 10.1523Z" fill="#646464"/>
</g>
<defs>
<clipPath id="clip0_316_11750">
<rect width="20" height="20" fill="white" transform="translate(0 0.5)"/>
</clipPath>
</defs>
</svg>
