<svg width="78" height="21" viewBox="0 0 78 21" fill="none" xmlns="http://www.w3.org/2000/svg">
<path d="M0.67572 20V1.51562H7.73431C9.72325 1.51562 11.2594 1.91764 12.3427 2.72168C13.426 3.51725 13.9677 4.72331 13.9677 6.33984C13.9677 7.3724 13.735 8.22298 13.2695 8.8916C12.8124 9.55176 12.2327 10.0046 11.5302 10.25V10.3008C12.3935 10.5462 13.1087 11.0371 13.6757 11.7734C14.2428 12.5098 14.5263 13.4958 14.5263 14.7314C14.5263 16.3903 13.9381 17.6852 12.7617 18.6162C11.5937 19.5387 10.0364 20 8.08978 20H0.67572ZM4.67474 17.1816H7.70892C8.64838 17.1816 9.34239 16.9362 9.79095 16.4453C10.2395 15.9544 10.4638 15.29 10.4638 14.4521C10.4638 13.6227 10.2395 12.9626 9.79095 12.4717C9.34239 11.9808 8.64838 11.7354 7.70892 11.7354H4.67474V17.1816ZM4.67474 9.20898H7.37885C8.30983 9.20898 8.97845 8.9974 9.3847 8.57422C9.79942 8.14258 10.0068 7.54167 10.0068 6.77148C10.0068 6.0013 9.79942 5.41309 9.3847 5.00684C8.97845 4.59212 8.30983 4.38477 7.37885 4.38477H4.67474V9.20898ZM16.3036 16.2168C16.3036 14.8118 16.8495 13.7454 17.9413 13.0176C19.0331 12.2812 20.4296 11.9131 22.1308 11.9131H24.8222V11.1641C24.8222 10.5801 24.6741 10.1146 24.3779 9.76758C24.0901 9.42057 23.5823 9.24707 22.8544 9.24707C22.135 9.24707 21.6145 9.39518 21.2929 9.69141C20.9798 9.97917 20.8232 10.3431 20.8232 10.7832V10.999H17.0273V10.7705C17.0273 9.58561 17.5816 8.61654 18.6904 7.86328C19.7991 7.10156 21.2548 6.7207 23.0576 6.7207C24.8688 6.7207 26.2695 7.08464 27.2597 7.8125C28.2584 8.54036 28.7578 9.67448 28.7578 11.2148V17.0801C28.7578 17.6133 28.8043 18.1169 28.8974 18.5908C28.9905 19.0648 29.1217 19.471 29.291 19.8096V20H25.4189C25.3089 19.7969 25.2158 19.543 25.1396 19.2383C25.0634 18.9336 25.0084 18.6289 24.9745 18.3242C24.7122 18.8151 24.2171 19.2552 23.4892 19.6445C22.7613 20.0339 21.8557 20.2285 20.7724 20.2285C19.4775 20.2285 18.4068 19.8942 17.5605 19.2256C16.7226 18.557 16.3036 17.554 16.3036 16.2168ZM20.2265 15.8867C20.2265 16.4538 20.3873 16.9023 20.7089 17.2324C21.0305 17.554 21.5299 17.7148 22.207 17.7148C22.9433 17.7148 23.5611 17.4779 24.0605 17.0039C24.5683 16.5299 24.8222 15.9671 24.8222 15.3154V14.1475H22.8925C21.9869 14.1475 21.3141 14.2956 20.874 14.5918C20.4423 14.8796 20.2265 15.3112 20.2265 15.8867ZM31.7665 20V7.08887H35.5497L35.6005 8.625H35.664C35.9941 8.08333 36.4977 7.64746 37.1747 7.31738C37.8518 6.97884 38.6178 6.80957 39.4726 6.80957C40.8014 6.80957 41.8805 7.18197 42.7099 7.92676C43.5478 8.67155 43.9667 9.96224 43.9667 11.7988V20H40.0439V11.9385C40.0439 11.1514 39.8746 10.597 39.5361 10.2754C39.1975 9.95378 38.7193 9.79297 38.1015 9.79297C37.5852 9.79297 37.1113 9.94108 36.6796 10.2373C36.248 10.5335 35.9179 10.944 35.6894 11.4688V20H31.7665ZM46.8232 20V0.817383H50.746V11.6338L54.9228 7.07617H59.29L50.746 16.1279V20H46.8232ZM55.2529 20L50.873 13.9443L53.3486 11.2021L59.874 20H55.2529Z" fill="#283D61"/>
<path d="M59.0361 20L65.7773 9.00586H67.0468L71.3124 1.51562H76.8476L70.6396 12.0654H69.3701L64.7617 20H59.0361ZM59.3027 1.51562L66.082 1.54102L70.5126 8.94238H70.4872L77.4189 20H70.538L65.8408 12.1289H65.8788L59.3027 1.51562Z" fill="#217BF4"/>
</svg>
