<svg width="20" height="20" viewBox="0 0 20 20" fill="none" xmlns="http://www.w3.org/2000/svg">
<g id="element-3">
<path id="Vector" d="M18.3333 7.0974V3.31406C18.3333 2.13906 17.8 1.66406 16.475 1.66406H13.1083C11.7833 1.66406 11.25 2.13906 11.25 3.31406V7.08906C11.25 8.2724 11.7833 8.73906 13.1083 8.73906H16.475C17.8 8.7474 18.3333 8.2724 18.3333 7.0974Z" fill="#646464"/>
<path id="Vector_2" d="M18.3333 16.475V13.1083C18.3333 11.7833 17.8 11.25 16.475 11.25H13.1083C11.7833 11.25 11.25 11.7833 11.25 13.1083V16.475C11.25 17.8 11.7833 18.3333 13.1083 18.3333H16.475C17.8 18.3333 18.3333 17.8 18.3333 16.475Z" fill="#646464"/>
<path id="Vector_3" d="M8.74935 7.0974V3.31406C8.74935 2.13906 8.21602 1.66406 6.89102 1.66406H3.52435C2.19935 1.66406 1.66602 2.13906 1.66602 3.31406V7.08906C1.66602 8.2724 2.19935 8.73906 3.52435 8.73906H6.89102C8.21602 8.7474 8.74935 8.2724 8.74935 7.0974Z" fill="#646464"/>
<path id="Vector_4" d="M8.75033 16.475V13.1083C8.75033 11.7833 8.21699 11.25 6.89199 11.25H3.52533C2.20033 11.25 1.66699 11.7833 1.66699 13.1083V16.475C1.66699 17.8 2.20033 18.3333 3.52533 18.3333H6.89199C8.21699 18.3333 8.75033 17.8 8.75033 16.475Z" fill="#646464"/>
</g>
</svg>
