<svg width="725" height="52" viewBox="0 0 725 52" fill="none" xmlns="http://www.w3.org/2000/svg">
<rect x="1.04102" y="0.5" width="722.978" height="51" rx="9.5" fill="white"/>
<rect x="1.04102" y="0.5" width="722.978" height="51" rx="9.5" stroke="#E8E8E8"/>
<path fill-rule="evenodd" clip-rule="evenodd" d="M30.3267 15C28.7661 15.0001 27.2282 15.3734 25.8413 16.0888C24.4544 16.8041 23.2586 17.8408 22.3538 19.1122C21.449 20.3836 20.8614 21.853 20.64 23.3977C20.4186 24.9424 20.5698 26.5176 21.0811 27.992C21.5923 29.4664 22.4487 30.7972 23.5789 31.8732C24.709 32.9493 26.0801 33.7396 27.5778 34.178C29.0755 34.6165 30.6563 34.6904 32.1884 34.3937C33.7205 34.0969 35.1594 33.4381 36.3851 32.4722L40.5898 36.6768C40.807 36.8865 41.0978 37.0026 41.3997 37C41.7016 36.9973 41.9903 36.8763 42.2038 36.6628C42.4173 36.4493 42.5383 36.1606 42.541 35.8587C42.5436 35.5568 42.4275 35.266 42.2178 35.0489L38.0131 30.8443C39.1506 29.4013 39.8589 27.6671 40.0568 25.8404C40.2548 24.0136 39.9345 22.1681 39.1325 20.5149C38.3305 18.8617 37.0792 17.4677 35.5219 16.4924C33.9646 15.5171 32.1642 14.9999 30.3267 15ZM22.8429 24.7861C22.8429 22.8014 23.6314 20.8979 25.0348 19.4945C26.4383 18.0911 28.3418 17.3026 30.3267 17.3026C32.3115 17.3026 34.215 18.0911 35.6185 19.4945C37.022 20.8979 37.8104 22.8014 37.8104 24.7861C37.8104 26.7709 37.022 28.6743 35.6185 30.0777C34.215 31.4812 32.3115 32.2696 30.3267 32.2696C28.3418 32.2696 26.4383 31.4812 25.0348 30.0777C23.6314 28.6743 22.8429 26.7709 22.8429 24.7861Z" fill="#252525"/>
<path d="M61.2441 27.8906V27.7812H62.7129V27.8906C62.7129 28.5885 62.9447 29.112 63.4082 29.4609C63.8717 29.8047 64.5176 29.9766 65.3457 29.9766C66.179 29.9766 66.8145 29.7995 67.252 29.4453C67.6947 29.0859 67.916 28.6172 67.916 28.0391C67.916 27.513 67.7025 27.0938 67.2754 26.7812C66.8535 26.4635 66.0488 26.1328 64.8613 25.7891C63.6374 25.4297 62.7676 25.0104 62.252 24.5312C61.7363 24.0521 61.4785 23.3672 61.4785 22.4766C61.4785 21.5964 61.8118 20.862 62.4785 20.2734C63.1504 19.6849 64.0827 19.3906 65.2754 19.3906C66.4577 19.3906 67.4004 19.7005 68.1035 20.3203C68.8066 20.9349 69.1582 21.7214 69.1582 22.6797V22.7891H67.6895V22.6797C67.6895 22.0703 67.4863 21.5807 67.0801 21.2109C66.6738 20.8359 66.0723 20.6484 65.2754 20.6484C64.4733 20.6484 63.8822 20.8099 63.502 21.1328C63.1217 21.4505 62.9316 21.8854 62.9316 22.4375C62.9316 22.9375 63.127 23.3333 63.5176 23.625C63.9082 23.9115 64.7077 24.2292 65.916 24.5781C67.1243 24.9219 68.002 25.3516 68.5488 25.8672C69.1009 26.3828 69.377 27.1068 69.377 28.0391C69.377 28.9714 69.015 29.737 68.291 30.3359C67.5671 30.9349 66.5853 31.2344 65.3457 31.2344C64.1061 31.2344 63.1113 30.9375 62.3613 30.3438C61.6165 29.7448 61.2441 28.9271 61.2441 27.8906ZM70.666 27.0391V26.7891C70.666 25.5547 71.002 24.5495 71.6738 23.7734C72.3509 22.9922 73.2441 22.6016 74.3535 22.6016C75.4629 22.6016 76.3171 22.9661 76.916 23.6953C77.515 24.4193 77.8145 25.4036 77.8145 26.6484V27.2344H71.5332V26.0938H76.377V25.9141C76.377 25.3203 76.2077 24.8151 75.8691 24.3984C75.5358 23.9766 75.0488 23.7656 74.4082 23.7656C73.6426 23.7656 73.0697 24.0573 72.6895 24.6406C72.3092 25.224 72.1191 25.9401 72.1191 26.7891V27.0391C72.1191 27.888 72.3197 28.6042 72.7207 29.1875C73.1217 29.7708 73.7415 30.0625 74.5801 30.0625C75.1009 30.0625 75.5462 29.9505 75.916 29.7266C76.291 29.4974 76.5957 29.2266 76.8301 28.9141L77.752 29.6406C77.4915 30.0312 77.0905 30.3958 76.5488 30.7344C76.0124 31.0677 75.3561 31.2344 74.5801 31.2344C73.3145 31.2344 72.3457 30.8438 71.6738 30.0625C71.002 29.2812 70.666 28.2734 70.666 27.0391ZM79.127 28.5938C79.127 27.7708 79.4525 27.1276 80.1035 26.6641C80.7598 26.2005 81.5957 25.9688 82.6113 25.9688H84.4707V25.3984C84.4707 24.9036 84.3431 24.5026 84.0879 24.1953C83.8327 23.888 83.3926 23.7344 82.7676 23.7344C82.1426 23.7344 81.6947 23.8646 81.4238 24.125C81.1582 24.3802 81.0254 24.6771 81.0254 25.0156V25.0625H79.6035V25.0156C79.6035 24.3698 79.89 23.8073 80.4629 23.3281C81.041 22.8438 81.8223 22.6016 82.8066 22.6016C83.7858 22.6016 84.5436 22.8359 85.0801 23.3047C85.6217 23.7682 85.8926 24.4661 85.8926 25.3984V29.125C85.8926 29.4635 85.9186 29.7839 85.9707 30.0859C86.0228 30.3828 86.0957 30.6458 86.1895 30.875V31H84.8145C84.7415 30.8698 84.6738 30.7005 84.6113 30.4922C84.554 30.2839 84.5176 30.0755 84.502 29.8672C84.3092 30.2057 83.9967 30.5052 83.5645 30.7656C83.1374 31.026 82.5879 31.1562 81.916 31.1562C81.1348 31.1562 80.4733 30.9375 79.9316 30.5C79.3952 30.0573 79.127 29.4219 79.127 28.5938ZM80.5488 28.5234C80.5488 28.9922 80.6842 29.3594 80.9551 29.625C81.2259 29.8854 81.6478 30.0156 82.2207 30.0156C82.7936 30.0156 83.3118 29.8177 83.7754 29.4219C84.2389 29.026 84.4707 28.6068 84.4707 28.1641V26.9922H82.7676C82.0384 26.9922 81.4863 27.1302 81.1113 27.4062C80.7363 27.6823 80.5488 28.0547 80.5488 28.5234ZM88.1426 31V22.8281H89.4316L89.4863 23.8828H89.5332C89.7415 23.5391 90.015 23.2396 90.3535 22.9844C90.6921 22.7292 91.0957 22.6016 91.5645 22.6016C91.679 22.6016 91.7988 22.6146 91.9238 22.6406C92.0488 22.6615 92.1374 22.6823 92.1895 22.7031V24.0234C92.0853 24.0026 91.9759 23.987 91.8613 23.9766C91.7467 23.9661 91.6217 23.9609 91.4863 23.9609C91.0228 23.9609 90.6243 24.0833 90.291 24.3281C89.9629 24.5729 89.7207 24.8802 89.5645 25.25V31H88.1426ZM92.916 27.0391V26.7891C92.916 25.5547 93.2493 24.5495 93.916 23.7734C94.5879 22.9922 95.5072 22.6016 96.6738 22.6016C97.7624 22.6016 98.5879 22.8932 99.1504 23.4766C99.7129 24.0599 99.9941 24.7188 99.9941 25.4531V25.4922H98.6113V25.4531C98.6113 25.0052 98.4577 24.612 98.1504 24.2734C97.8431 23.9349 97.3535 23.7656 96.6816 23.7656C95.89 23.7656 95.3066 24.0573 94.9316 24.6406C94.5566 25.2188 94.3691 25.9349 94.3691 26.7891V27.0391C94.3691 27.888 94.5566 28.6042 94.9316 29.1875C95.3066 29.7708 95.8874 30.0625 96.6738 30.0625C97.3509 30.0625 97.8431 29.8932 98.1504 29.5547C98.4577 29.2161 98.6113 28.8229 98.6113 28.375V28.3359H99.9941V28.375C99.9941 29.1042 99.7129 29.763 99.1504 30.3516C98.5879 30.9401 97.7624 31.2344 96.6738 31.2344C95.5072 31.2344 94.5879 30.8438 93.916 30.0625C93.2493 29.2812 92.916 28.2734 92.916 27.0391ZM101.674 31V19.0312H103.096V23.8438C103.382 23.4896 103.749 23.2057 104.197 22.9922C104.645 22.7786 105.132 22.6719 105.658 22.6719C106.424 22.6719 107.049 22.9062 107.533 23.375C108.023 23.8438 108.268 24.625 108.268 25.7188V31H106.846V25.7109C106.846 25.0547 106.697 24.5859 106.4 24.3047C106.109 24.0182 105.692 23.875 105.15 23.875C104.687 23.875 104.278 24 103.924 24.25C103.57 24.5 103.294 24.8229 103.096 25.2188V31H101.674ZM114.346 31V19.0312H115.768V23.8438C116.054 23.4896 116.421 23.2057 116.869 22.9922C117.317 22.7786 117.804 22.6719 118.33 22.6719C119.096 22.6719 119.721 22.9062 120.205 23.375C120.695 23.8438 120.939 24.625 120.939 25.7188V31H119.518V25.7109C119.518 25.0547 119.369 24.5859 119.072 24.3047C118.781 24.0182 118.364 23.875 117.822 23.875C117.359 23.875 116.95 24 116.596 24.25C116.242 24.5 115.965 24.8229 115.768 25.2188V31H114.346ZM122.666 27.0391V26.7891C122.666 25.5547 123.002 24.5495 123.674 23.7734C124.351 22.9922 125.244 22.6016 126.354 22.6016C127.463 22.6016 128.317 22.9661 128.916 23.6953C129.515 24.4193 129.814 25.4036 129.814 26.6484V27.2344H123.533V26.0938H128.377V25.9141C128.377 25.3203 128.208 24.8151 127.869 24.3984C127.536 23.9766 127.049 23.7656 126.408 23.7656C125.643 23.7656 125.07 24.0573 124.689 24.6406C124.309 25.224 124.119 25.9401 124.119 26.7891V27.0391C124.119 27.888 124.32 28.6042 124.721 29.1875C125.122 29.7708 125.742 30.0625 126.58 30.0625C127.101 30.0625 127.546 29.9505 127.916 29.7266C128.291 29.4974 128.596 29.2266 128.83 28.9141L129.752 29.6406C129.492 30.0312 129.09 30.3958 128.549 30.7344C128.012 31.0677 127.356 31.2344 126.58 31.2344C125.314 31.2344 124.346 30.8438 123.674 30.0625C123.002 29.2812 122.666 28.2734 122.666 27.0391ZM131.58 31V22.8281H132.869L132.924 23.8828H132.971C133.179 23.5391 133.452 23.2396 133.791 22.9844C134.13 22.7292 134.533 22.6016 135.002 22.6016C135.117 22.6016 135.236 22.6146 135.361 22.6406C135.486 22.6615 135.575 22.6823 135.627 22.7031V24.0234C135.523 24.0026 135.413 23.987 135.299 23.9766C135.184 23.9661 135.059 23.9609 134.924 23.9609C134.46 23.9609 134.062 24.0833 133.729 24.3281C133.4 24.5729 133.158 24.8802 133.002 25.25V31H131.58ZM136.354 27.0391V26.7891C136.354 25.5547 136.689 24.5495 137.361 23.7734C138.038 22.9922 138.932 22.6016 140.041 22.6016C141.15 22.6016 142.005 22.9661 142.604 23.6953C143.202 24.4193 143.502 25.4036 143.502 26.6484V27.2344H137.221V26.0938H142.064V25.9141C142.064 25.3203 141.895 24.8151 141.557 24.3984C141.223 23.9766 140.736 23.7656 140.096 23.7656C139.33 23.7656 138.757 24.0573 138.377 24.6406C137.997 25.224 137.807 25.9401 137.807 26.7891V27.0391C137.807 27.888 138.007 28.6042 138.408 29.1875C138.809 29.7708 139.429 30.0625 140.268 30.0625C140.788 30.0625 141.234 29.9505 141.604 29.7266C141.979 29.4974 142.283 29.2266 142.518 28.9141L143.439 29.6406C143.179 30.0312 142.778 30.3958 142.236 30.7344C141.7 31.0677 141.044 31.2344 140.268 31.2344C139.002 31.2344 138.033 30.8438 137.361 30.0625C136.689 29.2812 136.354 28.2734 136.354 27.0391Z" fill="#8A8A8A"/>
</svg>
