<svg width="20" height="20" viewBox="0 0 20 20" fill="none" xmlns="http://www.w3.org/2000/svg">
<g id="Group 239617">
<g id="element-3">
<g id="Group">
<path id="Vector" fill-rule="evenodd" clip-rule="evenodd" d="M10 11.6406C9.24613 11.6406 8.63281 12.2539 8.63281 13.0078V13.2514H11.3672V13.0078C11.3672 12.2539 10.7539 11.6406 10 11.6406Z" fill="#646464"/>
<path id="Vector_2" fill-rule="evenodd" clip-rule="evenodd" d="M13.5156 10.3516V8.59375H6.48438V10.3516C6.48438 10.5249 6.40867 10.6802 6.28906 10.7874V17.8454C6.40867 17.9527 6.48438 18.1079 6.48438 18.2812V20H7.46094V13.0078C7.46094 11.6078 8.59996 10.4688 10 10.4688C11.4 10.4688 12.5391 11.6078 12.5391 13.0078V20H13.5156V18.2812C13.5156 18.1079 13.5913 17.9527 13.7109 17.8454V10.7874C13.5913 10.6802 13.5156 10.5249 13.5156 10.3516Z" fill="#646464"/>
<path id="Vector_3" fill-rule="evenodd" clip-rule="evenodd" d="M3.75 18.8672H5.3125V20H3.75V18.8672Z" fill="#646464"/>
<path id="Vector_4" fill-rule="evenodd" clip-rule="evenodd" d="M3.75 8.59375H5.3125V9.76562H3.75V8.59375Z" fill="#646464"/>
<path id="Vector_5" fill-rule="evenodd" clip-rule="evenodd" d="M8.63281 19.9986H11.3672V17.8203H11.1719C10.8483 17.8203 10.586 17.558 10.586 17.2344C10.586 16.9108 10.8483 16.6484 11.1719 16.6484H11.3672V14.4219H8.63281V19.9986Z" fill="#646464"/>
<path id="Vector_6" fill-rule="evenodd" clip-rule="evenodd" d="M14.6875 8.59375H16.25V9.76562H14.6875V8.59375Z" fill="#646464"/>
<path id="Vector_7" fill-rule="evenodd" clip-rule="evenodd" d="M19.5703 18.8498V8.59375H17.4219V10.3516C17.4219 10.5249 17.3462 10.6802 17.2266 10.7874V17.8454C17.3462 17.9527 17.4219 18.1079 17.4219 18.2812V20H19.4141C19.7377 20 20 19.7377 20 19.4141C20 19.1446 19.818 18.9183 19.5703 18.8498Z" fill="#646464"/>
<path id="Vector_8" fill-rule="evenodd" clip-rule="evenodd" d="M2.57812 10.3516V8.59375H0.429688V18.8498C0.18207 18.9183 0 19.1446 0 19.4141C0 19.7377 0.262344 20 0.585938 20H2.57812V18.2812C2.57812 18.1079 2.65383 17.9527 2.77344 17.8454V10.7874C2.65383 10.6802 2.57812 10.5249 2.57812 10.3516Z" fill="#646464"/>
<path id="Vector_9" fill-rule="evenodd" clip-rule="evenodd" d="M14.6875 18.8672H16.25V20H14.6875V18.8672Z" fill="#646464"/>
<path id="Vector_10" fill-rule="evenodd" clip-rule="evenodd" d="M14.8828 10.9375H16.0547V17.6953H14.8828V10.9375Z" fill="#646464"/>
<path id="Vector_11" fill-rule="evenodd" clip-rule="evenodd" d="M3.94531 10.9375H5.11719V17.6953H3.94531V10.9375Z" fill="#646464"/>
<path id="Vector_12" fill-rule="evenodd" clip-rule="evenodd" d="M14.2578 1.00367C14.2578 0.839922 14.1238 0.705078 13.96 0.703203C13.7354 0.700625 13.5535 0.516484 13.5546 0.290937C13.5554 0.128672 13.4167 0 13.2545 0H6.74563C6.58555 0 6.44465 0.13082 6.44543 0.290937C6.44656 0.51875 6.26098 0.704336 6.03312 0.703242C5.87305 0.702461 5.74219 0.843594 5.74219 1.00367V2.85156H14.2578V1.00367Z" fill="#646464"/>
<path id="Vector_13" fill-rule="evenodd" clip-rule="evenodd" d="M15.4297 1.35938V2.8532H19.1942L15.4297 1.35938Z" fill="#646464"/>
<path id="Vector_14" fill-rule="evenodd" clip-rule="evenodd" d="M19.5703 6.23265V5.17355C19.8179 5.10512 20 4.87875 20 4.60933C20 4.33992 19.8179 4.11355 19.5703 4.04512C19.5703 4.04512 19.4682 4.02344 19.414 4.02344H0.585936C0.531757 4.02344 0.429726 4.04512 0.429726 4.04512C0.18207 4.11355 0 4.33992 0 4.60933C0 4.87875 0.18207 5.10512 0.429726 5.17355V6.23261C0.18207 6.30109 0 6.52746 0 6.79687C0 7.12046 0.262343 7.38281 0.585936 7.38281H19.4141C19.7377 7.38281 20 7.12046 20 6.79687C20 6.52746 19.8179 6.30109 19.5703 6.23265Z" fill="#646464"/>
<path id="Vector_15" fill-rule="evenodd" clip-rule="evenodd" d="M4.5702 1.35938L0.805664 2.8532H4.5702V1.35938Z" fill="#646464"/>
</g>
</g>
</g>
</svg>
