<svg width="20" height="21" viewBox="0 0 20 21" fill="none" xmlns="http://www.w3.org/2000/svg">
<g id="Group 239617">
<g id="element-3">
<g id="vuesax/bold/document-text">
<g id="document-text">
<path id="Vector" d="M13.1667 2.34207C12.8251 2.0004 12.2334 2.23373 12.2334 2.70873V5.61707C12.2334 6.83373 13.2667 7.84207 14.5251 7.84207C15.3167 7.8504 16.4167 7.8504 17.3584 7.8504C17.8334 7.8504 18.0834 7.29207 17.7501 6.95873C16.5501 5.7504 14.4001 3.5754 13.1667 2.34207Z" fill="#646464"/>
<path id="Vector_2" d="M17.083 8.99297H14.6747C12.6997 8.99297 11.0913 7.38464 11.0913 5.40964V3.0013C11.0913 2.54297 10.7163 2.16797 10.258 2.16797H6.72467C4.15801 2.16797 2.08301 3.83464 2.08301 6.80964V14.193C2.08301 17.168 4.15801 18.8346 6.72467 18.8346H13.2747C15.8413 18.8346 17.9163 17.168 17.9163 14.193V9.8263C17.9163 9.36797 17.5413 8.99297 17.083 8.99297ZM9.58301 15.293H6.24967C5.90801 15.293 5.62467 15.0096 5.62467 14.668C5.62467 14.3263 5.90801 14.043 6.24967 14.043H9.58301C9.92467 14.043 10.208 14.3263 10.208 14.668C10.208 15.0096 9.92467 15.293 9.58301 15.293ZM11.2497 11.9596H6.24967C5.90801 11.9596 5.62467 11.6763 5.62467 11.3346C5.62467 10.993 5.90801 10.7096 6.24967 10.7096H11.2497C11.5913 10.7096 11.8747 10.993 11.8747 11.3346C11.8747 11.6763 11.5913 11.9596 11.2497 11.9596Z" fill="#646464"/>
</g>
</g>
</g>
</g>
</svg>
