<svg width="123" height="24" viewBox="0 0 123 24" fill="none" xmlns="http://www.w3.org/2000/svg">
<g id="Group">
<path id="Vector" d="M25.9649 0.320312H32.6882C34.016 0.320312 35.2927 0.620726 36.5214 1.21855C37.7501 1.81637 38.6904 2.70259 39.3423 3.8772C39.7298 4.57116 40.0273 5.87795 40.0273 7.00751C40.0273 8.7439 39.2282 10.4803 38.5432 11.2854C37.8583 12.0905 36.9871 12.6943 35.9326 13.0969C34.8782 13.4994 33.8057 13.7007 32.7182 13.7007H30.6063V23.4822H25.9619V0.320312H25.9649ZM33.3401 4.92264H30.6093V9.3988H33.3401C33.7967 9.3988 34.3104 9.23657 34.9112 8.75591C35.2717 8.46451 35.5992 7.93578 35.6532 7.45813C35.7283 6.77018 35.5781 6.00713 35.2837 5.70672C34.773 5.184 34.1271 4.92264 33.3431 4.92264H33.3401Z" fill="#9ECFD7"/>
<path id="Vector_2" d="M41.6368 0.320312H48.36C49.6879 0.320312 50.9646 0.620726 52.1933 1.21855C53.422 1.81637 54.3623 2.70259 55.0142 3.8772C55.4017 4.57116 55.6991 5.87795 55.6991 7.00751C55.6991 8.7439 54.9 10.4803 54.2151 11.2854C53.5301 12.0905 52.6589 12.6943 51.6045 13.0969C50.55 13.4994 49.4776 13.7007 48.3901 13.7007H46.2782V23.4822H41.6338V0.320312H41.6368ZM49.0119 4.92264H46.2812V9.3988H49.0119C49.4686 9.3988 49.9823 9.23657 50.5831 8.75591C50.9436 8.46451 51.271 7.93578 51.3251 7.45813C51.4002 6.77018 51.25 6.00713 50.9556 5.70672C50.4449 5.184 49.799 4.92264 49.0149 4.92264H49.0119Z" fill="#9ECFD7"/>
<path id="Vector_3" d="M78.3628 0.334431H74.2051L66.83 19.0502H61.8371V0.316406H57.2588V23.4813H69.6298L71.4984 18.7407H81.1717L83.0402 23.4813H87.4894L78.3628 0.334431ZM73.2378 14.2616L76.332 6.45985L79.3962 14.2616H73.2378Z" fill="#133B62"/>
<path id="Vector_4" d="M89 23.4792V0.320312H93.2238L102.981 15.2599V0.320312H107.617V23.4792H103.192L93.5513 8.72587V23.4792H89Z" fill="#133B62"/>
<g id="Group_2">
<path id="Vector_5" d="M19.1543 9.80248C19.3586 10.5595 19.4668 11.2955 19.4668 12.0015C19.4668 13.074 19.2745 14.0713 18.887 14.9936C18.5024 15.9159 17.9647 16.709 17.2798 17.3729C16.5918 18.0368 15.7897 18.5475 14.8674 18.902C13.9452 19.2565 12.9598 19.4337 11.9084 19.4337C10.8569 19.4337 9.86557 19.2565 8.93128 18.902C7.997 18.5475 7.18888 18.0398 6.50094 17.3729C5.81299 16.709 5.27826 15.9129 4.89073 14.9936C4.5062 14.0713 4.31093 13.074 4.31093 12.0015C4.31093 10.929 4.50319 9.93166 4.89073 9.00939C5.27826 8.08712 5.81299 7.29403 6.50094 6.63012C7.18588 5.9662 7.997 5.4555 8.93128 5.10101C9.86557 4.74653 10.8569 4.56928 11.9084 4.56928C12.1757 4.56928 12.4401 4.5843 12.7075 4.60834L13.1971 0.0720991C12.7706 0.0270372 12.341 0 11.9084 0C10.3432 0 8.83515 0.300413 7.38716 0.901239C5.93917 1.50207 4.6564 2.34923 3.54187 3.44273C2.42734 4.53624 1.55614 5.82501 0.934285 7.30304C0.31243 8.78408 0 10.3492 0 12.0015C0 13.6538 0.309425 15.2189 0.934285 16.7C1.55614 18.181 2.42433 19.4668 3.54187 20.5603C4.6564 21.6538 5.93917 22.5009 7.38716 23.1018C8.83515 23.7026 10.3432 24.003 11.9084 24.003C13.4735 24.003 14.9816 23.7026 16.4296 23.1018C17.8776 22.5009 19.1573 21.6538 20.2749 20.5603C21.3894 19.4668 22.2576 18.181 22.8795 16.7C23.5013 15.2189 23.8137 13.6538 23.8137 12.0015C23.8137 10.7818 23.6545 9.62523 23.3391 8.53173L19.1573 9.79947L19.1543 9.80248Z" fill="#9ECFD7"/>
<path id="Vector_6" d="M12.707 4.60655C13.4911 4.68466 14.2692 4.87392 15.0472 5.17733C16.0867 5.5859 16.9549 6.19573 17.6518 7.01286C18.3488 7.82698 18.8264 8.66513 19.0848 9.52131C19.1118 9.61444 19.1329 9.70756 19.1599 9.80069L23.3417 8.52994C23.0563 7.52957 22.6417 6.58327 22.0949 5.69104C20.9474 3.82548 19.4603 2.41053 17.6398 1.4432C16.2068 0.689164 14.7288 0.23554 13.1967 0.0703125L12.707 4.60655Z" fill="#133B62"/>
</g>
<path id="Vector_7" d="M122.521 0.320312H109.747V4.93165H122.521V0.320312Z" fill="#133B62"/>
<path id="Vector_8" d="M118.447 9.59375H109.747V14.2051H118.447V9.59375Z" fill="#133B62"/>
<path id="Vector_9" d="M122.521 18.8672H109.747V23.4785H122.521V18.8672Z" fill="#133B62"/>
</g>
</svg>
