<svg width="20" height="21" viewBox="0 0 20 21" fill="none" xmlns="http://www.w3.org/2000/svg">
<path d="M10 17.1667C10.3889 17.1667 10.7174 17.0322 10.9856 16.7633C11.2544 16.4952 11.3889 16.1667 11.3889 15.7778C11.3889 15.3889 11.2544 15.0604 10.9856 14.7922C10.7174 14.5233 10.3889 14.3889 10 14.3889C9.61111 14.3889 9.28259 14.5233 9.01444 14.7922C8.74556 15.0604 8.61111 15.3889 8.61111 15.7778C8.61111 16.1667 8.74556 16.4952 9.01444 16.7633C9.28259 17.0322 9.61111 17.1667 10 17.1667ZM9 12.8889H11.0556C11.0556 12.2222 11.1296 11.7315 11.2778 11.4167C11.4259 11.1019 11.7407 10.7037 12.2222 10.2222C12.8704 9.57407 13.3289 9.03222 13.5978 8.59667C13.8659 8.16185 14 7.66667 14 7.11111C14 6.12963 13.6667 5.33778 13 4.73556C12.3333 4.13407 11.4352 3.83333 10.3056 3.83333C9.28704 3.83333 8.42148 4.08333 7.70889 4.58333C6.99556 5.08333 6.5 5.77778 6.22222 6.66667L8.05556 7.38889C8.18519 6.88889 8.44444 6.48593 8.83333 6.18C9.22222 5.87482 9.67593 5.72222 10.1944 5.72222C10.6944 5.72222 11.1111 5.8563 11.4444 6.12444C11.7778 6.39333 11.9444 6.75 11.9444 7.19444C11.9444 7.50926 11.8426 7.84259 11.6389 8.19445C11.4352 8.5463 11.0926 8.93519 10.6111 9.36111C10 9.89815 9.57889 10.4119 9.34778 10.9022C9.11593 11.3933 9 12.0556 9 12.8889ZM2.22222 20.5C1.61111 20.5 1.08778 20.2826 0.652222 19.8478C0.217407 19.4122 0 18.8889 0 18.2778V2.72222C0 2.11111 0.217407 1.58778 0.652222 1.15222C1.08778 0.717407 1.61111 0.5 2.22222 0.5H17.7778C18.3889 0.5 18.9122 0.717407 19.3478 1.15222C19.7826 1.58778 20 2.11111 20 2.72222V18.2778C20 18.8889 19.7826 19.4122 19.3478 19.8478C18.9122 20.2826 18.3889 20.5 17.7778 20.5H2.22222Z" fill="#646464"/>
</svg>
